<svg width="57" height="50" viewBox="0 0 57 50" fill="none" xmlns="http://www.w3.org/2000/svg">
<path d="M52.6154 0H6.57692C5.99549 0 5.43787 0.229037 5.02673 0.636725C4.61559 1.04441 4.38462 1.59736 4.38462 2.17391V28.2609C4.3886 31.719 5.77573 35.0344 8.24169 37.4796C10.7077 39.9249 14.0511 41.3004 17.5385 41.3043H32.8846C36.372 41.3004 39.7154 39.9249 42.1814 37.4796C44.6473 35.0344 46.0345 31.719 46.0385 28.2609V17.3913H48.5048C50.7571 17.3888 52.9164 16.5005 54.509 14.9212C56.1016 13.342 56.9975 11.2008 57 8.96739V4.34783C57 3.19471 56.5381 2.08882 55.7158 1.27345C54.8935 0.458073 53.7783 0 52.6154 0ZM52.6154 8.96739C52.6154 10.0484 52.1823 11.0852 51.4114 11.8496C50.6405 12.614 49.595 13.0435 48.5048 13.0435H46.0385V4.34783H52.6154V8.96739ZM48.2308 45.6522H2.19231C1.61087 45.6522 1.05325 45.8812 0.642112 46.2889C0.230975 46.6966 0 47.2495 0 47.8261C0 48.4026 0.230975 48.9556 0.642112 49.3633C1.05325 49.771 1.61087 50 2.19231 50H48.2308C48.8122 50 49.3698 49.771 49.781 49.3633C50.1921 48.9556 50.4231 48.4026 50.4231 47.8261C50.4231 47.2495 50.1921 46.6966 49.781 46.2889C49.3698 45.8812 48.8122 45.6522 48.2308 45.6522Z" fill="#02356B"/>
</svg>
