<svg width="33" height="33" viewBox="0 0 33 33" fill="none" xmlns="http://www.w3.org/2000/svg">
<path d="M21.45 29.7H23.1V33H0V29.7H1.65V3.3C1.65 1.485 3.135 0 4.95 0H18.15C19.0252 0 19.8646 0.347678 20.4835 0.966548C21.1023 1.58542 21.45 2.42479 21.45 3.3V29.7ZM4.95 3.3V13.2H18.15V3.3H4.95ZM21.45 16.5H23.1C23.9752 16.5 24.8146 16.8477 25.4335 17.4665C26.0523 18.0854 26.4 18.9248 26.4 19.8V24.75C26.4 25.1876 26.5738 25.6073 26.8833 25.9167C27.1927 26.2262 27.6124 26.4 28.05 26.4C28.4876 26.4 28.9073 26.2262 29.2167 25.9167C29.5262 25.6073 29.7 25.1876 29.7 24.75V16.5L26.4 13.2V9.9L23.1 6.6L24.75 4.95L33 13.2V24.75C33 26.0628 32.4785 27.3219 31.5502 28.2502C30.6219 29.1785 29.3628 29.7 28.05 29.7C26.7372 29.7 25.4781 29.1785 24.5498 28.2502C23.6215 27.3219 23.1 26.0628 23.1 24.75V19.8H21.45V16.5Z" fill="#02356B"/>
</svg>
