<svg width="52" height="52" viewBox="0 0 52 52" fill="none" xmlns="http://www.w3.org/2000/svg">
<path d="M15.5995 41.6C12.7396 41.6 10.4256 43.94 10.4256 46.8C10.4256 49.66 12.7396 52 15.5995 52C18.4594 52 20.7993 49.66 20.7993 46.8C20.7993 43.94 18.4594 41.6 15.5995 41.6ZM0 0V5.2H5.19982L14.5595 24.934L11.0496 31.304C10.6336 32.032 10.3996 32.89 10.3996 33.8C10.3996 36.66 12.7396 39 15.5995 39H46.7984V33.8H16.6914C16.3274 33.8 16.0414 33.514 16.0414 33.15L16.1194 32.838L18.4594 28.6H37.8287C39.7786 28.6 41.4946 27.534 42.3785 25.922L51.6862 9.048C51.9007 8.6512 52.0087 8.20555 51.9995 7.75458C51.9902 7.3036 51.8642 6.86272 51.6337 6.47501C51.4032 6.0873 51.076 5.76601 50.6842 5.54254C50.2924 5.31906 49.8494 5.20104 49.3983 5.2H10.9456L8.50171 0H0ZM41.5986 41.6C38.7387 41.6 36.4248 43.94 36.4248 46.8C36.4248 49.66 38.7387 52 41.5986 52C44.4585 52 46.7984 49.66 46.7984 46.8C46.7984 43.94 44.4585 41.6 41.5986 41.6Z" fill="#02356B"/>
</svg>
