<svg width="54" height="12" viewBox="0 0 54 12" fill="none" xmlns="http://www.w3.org/2000/svg">
<path d="M12 6C12 7.5913 11.3679 9.11742 10.2426 10.2426C9.11742 11.3679 7.5913 12 6 12C4.4087 12 2.88258 11.3679 1.75736 10.2426C0.632141 9.11742 0 7.5913 0 6C0 4.4087 0.632141 2.88258 1.75736 1.75736C2.88258 0.632142 4.4087 0 6 0C7.5913 0 9.11742 0.632142 10.2426 1.75736C11.3679 2.88258 12 4.4087 12 6ZM33 6C33 7.5913 32.3679 9.11742 31.2426 10.2426C30.1174 11.3679 28.5913 12 27 12C25.4087 12 23.8826 11.3679 22.7574 10.2426C21.6321 9.11742 21 7.5913 21 6C21 4.4087 21.6321 2.88258 22.7574 1.75736C23.8826 0.632142 25.4087 0 27 0C28.5913 0 30.1174 0.632142 31.2426 1.75736C32.3679 2.88258 33 4.4087 33 6ZM54 6C54 7.5913 53.3679 9.11742 52.2426 10.2426C51.1174 11.3679 49.5913 12 48 12C46.4087 12 44.8826 11.3679 43.7574 10.2426C42.6321 9.11742 42 7.5913 42 6C42 4.4087 42.6321 2.88258 43.7574 1.75736C44.8826 0.632142 46.4087 0 48 0C49.5913 0 51.1174 0.632142 52.2426 1.75736C53.3679 2.88258 54 4.4087 54 6Z" fill="#02356B"/>
</svg>
