<svg width="41" height="55" viewBox="0 0 41 55" fill="none" xmlns="http://www.w3.org/2000/svg">
<path d="M8.125 54.1667V29.3854C5.82292 28.7535 3.89368 27.4896 2.33729 25.5938C0.780902 23.6979 0.00180556 21.4861 0 18.9583V0H5.41667V18.9583H8.125V0H13.5417V18.9583H16.25V0H21.6667V18.9583C21.6667 21.4861 20.8885 23.6979 19.3321 25.5938C17.7757 27.4896 15.8456 28.7535 13.5417 29.3854V54.1667H8.125ZM35.2083 54.1667V32.5H27.0833V13.5417C27.0833 9.79514 28.4041 6.60201 31.0456 3.96229C33.6872 1.32257 36.8803 0.00180556 40.625 0V54.1667H35.2083Z" fill="#02356B"/>
</svg>
