<svg width="42" height="45" viewBox="0 0 42 45" fill="none" xmlns="http://www.w3.org/2000/svg">
<path d="M2.49796 3.72543C2.09066 4.53579 1.89038 5.53974 1.48983 7.54314L0.144142 14.2737C-0.0465741 15.1914 -0.0480512 16.1383 0.139801 17.0566C0.327653 17.9749 0.700882 18.8451 1.23664 19.6141C1.7724 20.3831 2.45941 21.0346 3.25562 21.5287C4.05183 22.0229 4.94048 22.3493 5.86718 22.488C6.79388 22.6266 7.73912 22.5747 8.64504 22.3352C9.55095 22.0958 10.3985 21.6739 11.1358 21.0954C11.873 20.5169 12.4845 19.794 12.9328 18.9709C13.381 18.1479 13.6567 17.2419 13.7428 16.3086L13.9003 14.7554C13.815 15.7432 13.9366 16.738 14.2575 17.6761C14.5783 18.6143 15.0912 19.4751 15.7634 20.2038C16.4357 20.9324 17.2525 21.5127 18.1617 21.9077C19.0708 22.3026 20.0523 22.5036 21.0435 22.4976C22.0347 22.4916 23.0137 22.2789 23.9181 21.873C24.8224 21.4671 25.6322 20.877 26.2956 20.1403C26.959 19.4036 27.4615 18.5366 27.771 17.5947C28.0805 16.6527 28.1901 15.6566 28.093 14.6699L28.2572 16.3086C28.3433 17.2419 28.619 18.1479 29.0672 18.9709C29.5155 19.794 30.127 20.5169 30.8643 21.0954C31.6015 21.6739 32.449 22.0958 33.355 22.3352C34.2609 22.5747 35.2061 22.6266 36.1328 22.488C37.0595 22.3493 37.9482 22.0229 38.7444 21.5287C39.5406 21.0346 40.2276 20.3831 40.7634 19.6141C41.2991 18.8451 41.6724 17.9749 41.8602 17.0566C42.0481 16.1383 42.0466 15.1914 41.8559 14.2737L40.5102 7.54314C40.1096 5.53974 39.9093 4.53804 39.502 3.72543C39.0776 2.87913 38.4801 2.13157 37.7481 1.53125C37.0162 0.93094 36.1663 0.491296 35.2535 0.240859C34.3758 2.5157e-07 33.3542 0 31.3109 0H10.6891C8.64581 0 7.62417 2.5157e-07 6.74655 0.240859C5.83375 0.491296 4.9838 0.93094 4.25186 1.53125C3.51992 2.13157 2.92236 2.87913 2.49796 3.72543ZM35.1072 25.8866C36.8654 25.8911 38.5949 25.4406 40.1276 24.5788V27.0122C40.1276 35.5007 40.1276 39.7461 37.4903 42.3821C35.3682 44.507 32.2065 44.919 26.6258 45V37.1417C26.6258 35.037 26.6258 33.9858 26.1735 33.2024C25.8772 32.6892 25.4511 32.263 24.938 31.9666C24.1549 31.5142 23.104 31.5142 21 31.5142C18.896 31.5142 17.8451 31.5142 17.062 31.9666C16.5489 32.263 16.1228 32.6892 15.8265 33.2024C15.3742 33.9858 15.3742 35.037 15.3742 37.1417V45C9.79346 44.919 6.63178 44.5048 4.50974 42.3821C1.87238 39.7461 1.87238 35.5007 1.87238 27.0122V24.5788C3.40577 25.4409 5.13608 25.8915 6.89507 25.8866C9.49566 25.8885 11.9995 24.9002 13.898 23.1224C15.833 24.9054 18.3692 25.8925 21 25.8866C23.6308 25.8923 26.1669 24.9052 28.102 23.1224C30.0005 24.9002 32.5066 25.8885 35.1072 25.8866Z" fill="#02356B"/>
</svg>
